<svg width="24" height="24" viewBox="0 0 24 24"  xmlns="http://www.w3.org/2000/svg">
    <path fill-rule="evenodd" clip-rule="evenodd" d="M1.24842 12.0311C1.24843 11.6997 1.51705 11.4311 1.84842 11.4311L22.2131 11.4311C22.5445 11.4311 22.8131 11.6997 22.8131 12.0311C22.8131 12.3625 22.5445 12.6311 22.2131 12.6311L1.84843 12.6311C1.51705 12.6311 1.24843 12.3625 1.24842 12.0311Z"/>
    <path fill-rule="evenodd" clip-rule="evenodd" d="M12.0311 1.24867C12.3625 1.24867 12.6311 1.5173 12.6311 1.84867L12.6311 22.2133C12.6311 22.5447 12.3625 22.8133 12.0311 22.8133C11.6997 22.8133 11.4311 22.5447 11.4311 22.2133L11.4311 1.84867C11.4311 1.5173 11.6997 1.24867 12.0311 1.24867Z"/>
</svg>
