<svg width="24" height="24" viewBox="0 0 24 24" xmlns="http://www.w3.org/2000/svg">
  <path fill-rule="evenodd" clip-rule="evenodd"
    d="M9.04702 21.1556C9.71675 22.1932 10.8047 22.8444 12 22.8444C13.1953 22.8444 14.2832 22.1932 14.953 21.1556H9.04702ZM8.2883 21.1556C8.17751 20.9467 8.08093 20.7277 8 20.5H16C15.9191 20.7277 15.8225 20.9467 15.7117 21.1556C14.968 22.5576 13.5842 23.5 12 23.5C10.4158 23.5 9.03201 22.5576 8.2883 21.1556Z" />
  <path fill-rule="evenodd" clip-rule="evenodd"
    d="M12.2233 1.65557C11.6198 1.65557 11.1307 2.14475 11.1307 2.74818C11.1307 2.8468 11.1436 2.94204 11.1679 3.03248L11.3068 3.01804C11.9265 2.95359 12.5521 2.96974 13.1677 3.06609L13.2644 3.08123C13.2979 2.97642 13.3159 2.86462 13.3159 2.74818C13.3159 2.14475 12.8267 1.65557 12.2233 1.65557ZM13.6195 3.80035L13.0663 3.71377C12.5066 3.62618 11.938 3.6115 11.3746 3.67009L10.7781 3.73211C10.5869 3.45183 10.4751 3.11306 10.4751 2.74818C10.4751 1.78269 11.2578 1 12.2233 1C13.1888 1 13.9715 1.78269 13.9715 2.74818C13.9715 3.1432 13.8404 3.50762 13.6195 3.80035Z" />
  <path fill-rule="evenodd" clip-rule="evenodd"
    d="M18.2027 9.76528L18.203 9.7108L18.2027 9.65633L18.2027 9.64874L18.2027 9.60903L18.2002 9.52564C18.1032 6.24351 15.4317 3.62232 12.1627 3.62232C8.89362 3.62232 6.22211 6.24351 6.12511 9.52564L6.12211 9.62711V13.8127C6.12211 16.0078 5.29125 18.1215 3.79652 19.729C3.61924 19.9197 3.75445 20.23 4.01478 20.23H19.8876C20.2635 20.23 20.4641 19.7868 20.2159 19.5045L19.5079 18.699C18.6667 17.7418 18.2027 16.5111 18.2027 15.2367L18.2027 9.76528ZM19.0768 9.77286L19.0771 9.7108L19.0768 9.64874V9.49982H19.0739C18.9632 5.7521 15.9113 2.74823 12.1627 2.74823C8.41405 2.74823 5.36217 5.7521 5.2514 9.49982H5.24802V13.8127C5.24802 15.787 4.50075 17.688 3.1564 19.1338C2.45921 19.8836 2.99094 21.1041 4.01478 21.1041H19.8876C21.0154 21.1041 21.617 19.7746 20.8724 18.9274L20.1645 18.1219C19.4634 17.3243 19.0768 16.2987 19.0768 15.2367V9.77286Z" />
</svg>