<svg width="24" height="24" viewBox="0 0 24 24" fill="none" xmlns="http://www.w3.org/2000/svg">
<path fill-rule="evenodd" clip-rule="evenodd" d="M12.2894 14.5306L20.8099 5.85576C21.3743 5.28109 21.3743 4.34937 20.8099 3.77471C20.2454 3.20004 19.3303 3.20004 18.7658 3.77471L10.2454 12.4495L12.2894 14.5306ZM21.6615 2.90762C20.6267 1.85407 18.949 1.85407 17.9142 2.90762L8.54207 12.4495L12.2894 16.2647L21.6615 6.72285C22.6963 5.6693 22.6963 3.96116 21.6615 2.90762Z" />
<path fill-rule="evenodd" clip-rule="evenodd" d="M9.38846 13.3154L11.4325 15.3965L9.38846 17.4775L9.21921 17.3052L9.35247 17.8479L8.92544 18.7403L9.38846 19.2117L10.2401 18.3446L12.2841 16.2636L13.1358 15.3965L12.2841 14.5294L10.2401 12.4483L9.38846 11.5812L8.53679 12.4483L6.49278 14.5294L5.64111 15.3965L5.96156 15.7227L6.7027 15.1501L7.40966 15.3301L9.38846 13.3154Z" />
<path fill-rule="evenodd" clip-rule="evenodd" d="M7.56797 19.6521L7.62931 19.6271C8.35292 19.332 8.85934 18.6223 8.85934 17.7971C8.85934 16.7063 7.97509 15.8221 6.88433 15.8221C5.93562 15.8221 5.14065 16.4922 4.95196 17.3858C4.92015 17.5364 4.89866 17.6908 4.87004 17.8965C4.86718 17.917 4.86425 17.9381 4.86123 17.9597C4.83057 18.1793 4.7907 18.4556 4.72012 18.7394C4.54484 19.4439 4.3056 20.3015 4.02871 21.1093C4.02084 21.1322 4.01291 21.1553 4.00492 21.1783C5.27413 20.7259 6.65049 20.1487 7.5097 19.6837L7.56797 19.6521ZM3.40174 22.6642C3.33887 22.6841 3.27668 22.7035 3.21525 22.7224C2.94754 22.8047 2.69436 22.877 2.46249 22.9368C2.37707 22.9588 2.29454 22.9791 2.21524 22.9976C2.08381 23.0283 1.94664 22.7581 2.02096 22.6454C2.04827 22.604 2.07552 22.5606 2.10272 22.5151C2.22229 22.3154 2.34064 22.078 2.456 21.8154C2.47827 21.7648 2.50043 21.7132 2.52246 21.6607C2.93154 20.6867 3.29795 19.4216 3.54068 18.4459C3.59967 18.2088 3.63327 17.9666 3.66689 17.7243C3.69427 17.5269 3.72166 17.3294 3.76279 17.1347C4.06773 15.6906 5.34945 14.6067 6.88433 14.6067C8.64634 14.6067 10.0747 16.0351 10.0747 17.7971C10.0747 19.1331 9.25346 20.2774 8.08822 20.7525C6.93576 21.3763 4.95907 22.1714 3.40174 22.6642Z" />
</svg>
