<svg width="24" height="24" viewBox="0 0 24 24" xmlns="http://www.w3.org/2000/svg">
  <path fill-rule="evenodd" clip-rule="evenodd"
    d="M22 5H2V21H22V5ZM2 4C1.44772 4 1 4.44772 1 5V21C1 21.5523 1.44772 22 2 22H22C22.5523 22 23 21.5523 23 21V5C23 4.44772 22.5523 4 22 4H2Z" />
  <path fill-rule="evenodd" clip-rule="evenodd" d="M6 2H5V7H6V2Z" />
  <path fill-rule="evenodd" clip-rule="evenodd" d="M10 2H9V7H10V2Z" />
  <path fill-rule="evenodd" clip-rule="evenodd" d="M15 2H14V7H15V2Z" />
  <path fill-rule="evenodd" clip-rule="evenodd" d="M19 2H18V7H19V2Z" />
  <path fill-rule="evenodd" clip-rule="evenodd"
    d="M7 10H5V12H7V10ZM5 9C4.44772 9 4 9.44772 4 10V12C4 12.5523 4.44772 13 5 13H7C7.55228 13 8 12.5523 8 12V10C8 9.44772 7.55228 9 7 9H5Z" />
  <path fill-rule="evenodd" clip-rule="evenodd"
    d="M7 16H5V18H7V16ZM5 15C4.44772 15 4 15.4477 4 16V18C4 18.5523 4.44772 19 5 19H7C7.55228 19 8 18.5523 8 18V16C8 15.4477 7.55228 15 7 15H5Z" />
  <path fill-rule="evenodd" clip-rule="evenodd"
    d="M13 16H11V18H13V16ZM11 15C10.4477 15 10 15.4477 10 16V18C10 18.5523 10.4477 19 11 19H13C13.5523 19 14 18.5523 14 18V16C14 15.4477 13.5523 15 13 15H11Z" />
  <path fill-rule="evenodd" clip-rule="evenodd"
    d="M19 16H17V18H19V16ZM17 15C16.4477 15 16 15.4477 16 16V18C16 18.5523 16.4477 19 17 19H19C19.5523 19 20 18.5523 20 18V16C20 15.4477 19.5523 15 19 15H17Z" />
</svg>