<svg width="24" height="24" viewBox="0 0 24 24" xmlns="http://www.w3.org/2000/svg">
<path fill-rule="evenodd" clip-rule="evenodd" d="M17 8.5H7V7.5H17V8.5Z"/>
<path fill-rule="evenodd" clip-rule="evenodd" d="M17 11.5H7V10.5H17V11.5Z"/>
<path fill-rule="evenodd" clip-rule="evenodd" d="M17 14.5H7V13.5H17V14.5Z"/>
<path fill-rule="evenodd" clip-rule="evenodd" d="M17 17.5H7V16.5H17V17.5Z"/>
<path fill-rule="evenodd" clip-rule="evenodd" d="M7.62109 2.44824H6C4.89543 2.44824 4 3.34367 4 4.44824V20.4482C4 21.5528 4.89543 22.4482 6 22.4482H18C19.1046 22.4482 20 21.5528 20 20.4482V4.44824C20 3.34367 19.1046 2.44824 18 2.44824H16.6211V3.44824H18C18.5523 3.44824 19 3.89596 19 4.44824V20.4482C19 21.0005 18.5523 21.4482 18 21.4482H6C5.44772 21.4482 5 21.0005 5 20.4482V4.44824C5 3.89596 5.44772 3.44824 6 3.44824H7.62109V2.44824Z"/>
<path fill-rule="evenodd" clip-rule="evenodd" d="M15.6201 2H8.62012L8.62012 4H15.6201V2ZM8.62012 1C8.06783 1 7.62012 1.44772 7.62012 2V4C7.62012 4.55228 8.06783 5 8.62012 5H15.6201C16.1724 5 16.6201 4.55228 16.6201 4V2C16.6201 1.44772 16.1724 1 15.6201 1H8.62012Z"/>
</svg>
