<svg width="24" height="24" viewBox="0 0 24 24" xmlns="http://www.w3.org/2000/svg">
<path fill-rule="evenodd" clip-rule="evenodd" d="M22.8 12C22.8 17.9647 17.9647 22.8 12 22.8C6.03532 22.8 1.2 17.9647 1.2 12C1.2 6.03532 6.03532 1.2 12 1.2C17.9647 1.2 22.8 6.03532 22.8 12ZM24 12C24 18.6274 18.6274 24 12 24C5.37258 24 0 18.6274 0 12C0 5.37258 5.37258 0 12 0C18.6274 0 24 5.37258 24 12ZM12.5999 6.00002C12.5999 5.66865 12.3313 5.40002 11.9999 5.40002C11.6685 5.40002 11.3999 5.66865 11.3999 6.00002V12.2486L17.0756 17.9243C17.31 18.1586 17.6899 18.1586 17.9242 17.9243C18.1585 17.69 18.1585 17.3101 17.9242 17.0758L12.5999 11.7515V6.00002Z"/>
</svg>
