<svg width="24" height="24" viewBox="0 0 24 24" xmlns="http://www.w3.org/2000/svg">
<path d="M12 -5.24537e-07C18.6274 -8.1423e-07 24 5.37258 24 12C24 18.6274 18.6274 24 12 24C5.37258 24 -2.34843e-07 18.6274 -5.24537e-07 12C-8.1423e-07 5.37258 5.37258 -2.34843e-07 12 -5.24537e-07Z"/>
<path fill-rule="evenodd" clip-rule="evenodd" d="M12 22.8C17.9647 22.8 22.8 17.9647 22.8 12C22.8 6.03533 17.9647 1.2 12 1.2C6.03533 1.2 1.2 6.03533 1.2 12C1.2 17.9647 6.03533 22.8 12 22.8ZM-5.24537e-07 12C-2.34843e-07 18.6274 5.37258 24 12 24C18.6274 24 24 18.6274 24 12C24 5.37258 18.6274 1.09312e-06 12 1.38281e-06C5.37258 1.67251e-06 -8.1423e-07 5.37259 -5.24537e-07 12Z"/>
<path fill-rule="evenodd" clip-rule="evenodd" d="M8.46479 8.46447C8.75768 8.17158 9.23255 8.17158 9.52545 8.46447L15.5359 14.4749C15.8287 14.7678 15.8287 15.2426 15.5359 15.5355C15.243 15.8284 14.7681 15.8284 14.4752 15.5355L8.46479 9.52513C8.17189 9.23224 8.17189 8.75737 8.46479 8.46447Z" fill="white"/>
<path fill-rule="evenodd" clip-rule="evenodd" d="M15.5351 8.46375C15.828 8.75664 15.828 9.23152 15.5351 9.52441L9.52469 15.5348C9.2318 15.8277 8.75693 15.8277 8.46403 15.5348C8.17114 15.2419 8.17114 14.767 8.46403 14.4742L14.4744 8.46375C14.7673 8.17086 15.2422 8.17086 15.5351 8.46375Z" fill="white"/>
</svg>
