<svg width="24" height="24" viewBox="0 0 24 24" fill="none" xmlns="http://www.w3.org/2000/svg">
  <path fill-rule="evenodd" clip-rule="evenodd"
    d="M3.5 8C3.5 7.72386 3.72386 7.5 4 7.5H20C20.2761 7.5 20.5 7.72386 20.5 8C20.5 8.27614 20.2761 8.5 20 8.5H4C3.72386 8.5 3.5 8.27614 3.5 8Z" />
  <path fill-rule="evenodd" clip-rule="evenodd"
    d="M3.5 12C3.5 11.7239 3.72386 11.5 4 11.5H20C20.2761 11.5 20.5 11.7239 20.5 12C20.5 12.2761 20.2761 12.5 20 12.5H4C3.72386 12.5 3.5 12.2761 3.5 12Z" />
  <path fill-rule="evenodd" clip-rule="evenodd"
    d="M3.5 16C3.5 15.7239 3.72386 15.5 4 15.5H20C20.2761 15.5 20.5 15.7239 20.5 16C20.5 16.2761 20.2761 16.5 20 16.5H4C3.72386 16.5 3.5 16.2761 3.5 16Z" />
  <path d="M11.9999 0L14.598 5.25H9.40186L11.9999 0Z" />
  <path fill-rule="evenodd" clip-rule="evenodd"
    d="M11.9999 0L9.40186 5.25H14.598L11.9999 0ZM11.9999 2.25463L11.0125 4.25H12.9874L11.9999 2.25463Z" />
  <path d="M12.0001 24L9.40199 18.75L14.5981 18.75L12.0001 24Z" />
  <path fill-rule="evenodd" clip-rule="evenodd"
    d="M12.0001 24L14.5981 18.75L9.40199 18.75L12.0001 24ZM12.0001 21.7454L12.9875 19.75L11.0126 19.75L12.0001 21.7454Z" />
</svg>