<svg width="24" height="24" viewBox="0 0 24 24" fill="none" xmlns="http://www.w3.org/2000/svg">
<path fill-rule="evenodd" clip-rule="evenodd" d="M6.2002 2.80029H12.2002V8.80029C12.2002 9.35258 12.6479 9.80029 13.2002 9.80029H19.2002V19.8003C19.2002 20.3526 18.7525 20.8003 18.2002 20.8003H6.2002C5.64791 20.8003 5.2002 20.3526 5.2002 19.8003V3.80029C5.2002 3.24801 5.64791 2.80029 6.2002 2.80029ZM20.2002 9.80029V19.8003C20.2002 20.9049 19.3048 21.8003 18.2002 21.8003H6.2002C5.09563 21.8003 4.2002 20.9049 4.2002 19.8003V3.80029C4.2002 2.69572 5.09563 1.80029 6.2002 1.80029H12.2002H12.7031H13.2002L13.5507 2.15076L13.5517 2.15176L14.2002 2.80029L19.2002 7.80029L20.2002 8.80029V9.80029ZM13.2002 8.80029V3.30029L18.7002 8.80029H13.2002ZM12.514 14.915V18H11.314V14.915H8.39966V13.715H11.314V10.8H12.514V13.715H15.5997V14.915H12.514Z" />
</svg>
