<svg width="24" height="24" viewBox="0 0 24 24" xmlns="http://www.w3.org/2000/svg">
<path fill-rule="evenodd" clip-rule="evenodd" d="M1.5 7C1.5 6.72386 1.72386 6.5 2 6.5H22C22.2761 6.5 22.5 6.72386 22.5 7C22.5 7.27614 22.2761 7.5 22 7.5H2C1.72386 7.5 1.5 7.27614 1.5 7Z"/>
<path fill-rule="evenodd" clip-rule="evenodd" d="M5.5 12C5.5 11.7239 5.72386 11.5 6 11.5H18C18.2761 11.5 18.5 11.7239 18.5 12C18.5 12.2761 18.2761 12.5 18 12.5H6C5.72386 12.5 5.5 12.2761 5.5 12Z"/>
<path fill-rule="evenodd" clip-rule="evenodd" d="M8.5 17C8.5 16.7239 8.72386 16.5 9 16.5H15C15.2761 16.5 15.5 16.7239 15.5 17C15.5 17.2761 15.2761 17.5 15 17.5H9C8.72386 17.5 8.5 17.2761 8.5 17Z"/>
</svg>
