<svg width="26" height="29" viewBox="0 0 26 29" fill="none" xmlns="http://www.w3.org/2000/svg">
<path fill-rule="evenodd" clip-rule="evenodd" d="M21 12C21 16.4183 17.4183 20 13 20C8.58172 20 5 16.4183 5 12C5 7.58172 8.58172 4 13 4C17.4183 4 21 7.58172 21 12ZM22 12C22 16.9706 17.9706 21 13 21C8.02944 21 4 16.9706 4 12C4 7.02944 8.02944 3 13 3C17.9706 3 22 7.02944 22 12ZM19 12C19 15.3137 16.3137 18 13 18C9.68629 18 7 15.3137 7 12C7 8.68629 9.68629 6 13 6C16.3137 6 19 8.68629 19 12ZM20 12C20 15.866 16.866 19 13 19C9.13401 19 6 15.866 6 12C6 8.13401 9.13401 5 13 5C16.866 5 20 8.13401 20 12Z" />
</svg>
