<svg width="24" height="24" viewBox="0 0 24 24" fill="none" xmlns="http://www.w3.org/2000/svg">
<path fill-rule="evenodd" clip-rule="evenodd" d="M3 7H21C22.1046 7 23 7.89543 23 9V15C23 16.1046 22.1046 17 21 17H3C1.89543 17 1 16.1046 1 15V9C1 7.89543 1.89543 7 3 7ZM0 9C0 7.34315 1.34315 6 3 6H21C22.6569 6 24 7.34315 24 9V15C24 16.6569 22.6569 18 21 18H3C1.34315 18 0 16.6569 0 15V9ZM5.5 10C5.5 10.5523 5.05228 11 4.5 11C3.94772 11 3.5 10.5523 3.5 10C3.5 9.44772 3.94772 9 4.5 9C5.05228 9 5.5 9.44772 5.5 10ZM6.5 10C6.5 11.1046 5.60457 12 4.5 12C3.39543 12 2.5 11.1046 2.5 10C2.5 8.89543 3.39543 8 4.5 8C5.60457 8 6.5 8.89543 6.5 10ZM9.5 11C10.0523 11 10.5 10.5523 10.5 10C10.5 9.44772 10.0523 9 9.5 9C8.94772 9 8.5 9.44772 8.5 10C8.5 10.5523 8.94772 11 9.5 11ZM9.5 12C10.6046 12 11.5 11.1046 11.5 10C11.5 8.89543 10.6046 8 9.5 8C8.39543 8 7.5 8.89543 7.5 10C7.5 11.1046 8.39543 12 9.5 12ZM15.5 10C15.5 10.5523 15.0523 11 14.5 11C13.9477 11 13.5 10.5523 13.5 10C13.5 9.44772 13.9477 9 14.5 9C15.0523 9 15.5 9.44772 15.5 10ZM16.5 10C16.5 11.1046 15.6046 12 14.5 12C13.3954 12 12.5 11.1046 12.5 10C12.5 8.89543 13.3954 8 14.5 8C15.6046 8 16.5 8.89543 16.5 10ZM19.5 11C20.0523 11 20.5 10.5523 20.5 10C20.5 9.44772 20.0523 9 19.5 9C18.9477 9 18.5 9.44772 18.5 10C18.5 10.5523 18.9477 11 19.5 11ZM19.5 12C20.6046 12 21.5 11.1046 21.5 10C21.5 8.89543 20.6046 8 19.5 8C18.3954 8 17.5 8.89543 17.5 10C17.5 11.1046 18.3954 12 19.5 12ZM3 14H21V15H3V14ZM2 14C2 13.4477 2.44772 13 3 13H21C21.5523 13 22 13.4477 22 14V15C22 15.5523 21.5523 16 21 16H3C2.44772 16 2 15.5523 2 15V14Z" />
</svg>
