<svg width="24" height="24" viewBox="0 0 24 24" xmlns="http://www.w3.org/2000/svg">
<path fill-rule="evenodd" clip-rule="evenodd" d="M1 3H23V17H14.7695H9.23047H1V3ZM23 18H14.9453L15.8242 23H19V24H16H8H5V23H8.17578L9.05469 18H1C0.447266 18 0 17.5523 0 17V3C0 2.44769 0.447266 2 1 2H23C23.5527 2 24 2.44769 24 3V17C24 17.5523 23.5527 18 23 18ZM10.0703 18H13.9297L14.8086 23H9.19141L10.0703 18ZM15.293 15L18 12.2929V13.7071L16.707 15H15.293ZM19 15V12.7071V11.2929V11C19 10.6548 18.8252 10.3505 18.5596 10.1708L18.5459 10.1616C18.3887 10.0593 18.2012 10 18 10H17.293H15.707H14.293H12.707H11.293H9.70703H8.29297H6C5.44727 10 5 10.4477 5 11V13.2929V14.7071V15C5 15.3452 5.1748 15.6495 5.44043 15.8292L5.4541 15.8384C5.5459 15.8978 5.64746 15.9427 5.75586 15.97C5.83398 15.9896 5.91602 16 6 16H6.70703H8.29297H9.70703H11.293H12.707H14.293H15.707H18C18.5527 16 19 15.5523 19 15ZM13.293 11H14.707L10.707 15H9.29297L13.293 11ZM16.293 11L12.293 15H13.707L17.707 11H16.293ZM11.707 11L7.70703 15H6.29297L10.293 11H11.707ZM8.70703 11L6 13.7071V12.2929L7.29297 11H8.70703Z" />
</svg>
