<svg width="24" height="24" viewBox="0 0 24 24" fill="none" xmlns="http://www.w3.org/2000/svg">
<path fill-rule="evenodd" clip-rule="evenodd" d="M10.1789 3.21672C9.56504 3.10511 9 3.57668 9 4.20059V7.1054C9 7.17188 8.99779 7.23817 8.99341 7.30417H9V20.8042H16C17.1046 20.8042 18 19.9087 18 18.8042V5.47332C18 4.99003 17.6544 4.5759 17.1789 4.48945L10.1789 3.21672ZM8 20.7348V9.40995L6.43515 11.376L5.65273 10.7533L7.56485 8.35089C7.8466 7.9969 8 7.55783 8 7.1054V4.20059C8 2.95278 9.13009 2.00963 10.3578 2.23285L17.3578 3.50558C18.3088 3.67848 19 4.50674 19 5.47332V18.8042C19 20.461 17.6569 21.8042 16 21.8042H8.52215C8.17665 21.8042 7.83374 21.7445 7.50855 21.6277L6.98641 21.4403C5.7948 21.0126 5 19.8828 5 18.6167V12.6215C5 11.9429 5.2301 11.2843 5.65273 10.7533L6.43515 11.376C6.1534 11.73 6 12.1691 6 12.6215V18.6167C6 19.4608 6.52987 20.2139 7.32427 20.4991L7.84642 20.6866C7.89701 20.7047 7.94825 20.7208 8 20.7348ZM14 6.80417H13V9.80417H14V6.80417ZM13 5.80417C12.4477 5.80417 12 6.25188 12 6.80417V9.80417C12 10.3565 12.4477 10.8042 13 10.8042H14C14.5523 10.8042 15 10.3565 15 9.80417V6.80417C15 6.25188 14.5523 5.80417 14 5.80417H13Z" />
</svg>
