<svg width="24" height="24" viewBox="0 0 24 24" fill="none" xmlns="http://www.w3.org/2000/svg">
<path fill-rule="evenodd" clip-rule="evenodd" d="M2 2H22C22.5523 2 23 2.44772 23 3V21C23 21.5523 22.5523 22 22 22H2C1.44772 22 1 21.5523 1 21V3C1 2.44772 1.44771 2 2 2ZM0 3C0 1.89543 0.895431 1 2 1H22C23.1046 1 24 1.89543 24 3V21C24 22.1046 23.1046 23 22 23H2C0.89543 23 0 22.1046 0 21V3ZM3.25 5C3.80228 5 4.25 4.55228 4.25 4C4.25 3.44772 3.80228 3 3.25 3C2.69772 3 2.25 3.44772 2.25 4C2.25 4.55228 2.69772 5 3.25 5ZM7.75 4C7.75 4.55228 7.30228 5 6.75 5C6.19772 5 5.75 4.55228 5.75 4C5.75 3.44772 6.19772 3 6.75 3C7.30228 3 7.75 3.44772 7.75 4ZM10.25 5C10.8023 5 11.25 4.55228 11.25 4C11.25 3.44772 10.8023 3 10.25 3C9.69771 3 9.25 3.44772 9.25 4C9.25 4.55228 9.69771 5 10.25 5ZM14.75 4C14.75 4.55228 14.3023 5 13.75 5C13.1977 5 12.75 4.55228 12.75 4C12.75 3.44772 13.1977 3 13.75 3C14.3023 3 14.75 3.44772 14.75 4ZM17.25 5C17.8023 5 18.25 4.55228 18.25 4C18.25 3.44772 17.8023 3 17.25 3C16.6977 3 16.25 3.44772 16.25 4C16.25 4.55228 16.6977 5 17.25 5ZM21.75 4C21.75 4.55228 21.3023 5 20.75 5C20.1977 5 19.75 4.55228 19.75 4C19.75 3.44772 20.1977 3 20.75 3C21.3023 3 21.75 3.44772 21.75 4ZM4 9.5C4 9.77614 3.77614 10 3.5 10C3.22386 10 3 9.77614 3 9.5C3 9.22386 3.22386 9 3.5 9C3.77614 9 4 9.22386 4 9.5ZM5 9.5C5 10.3284 4.32843 11 3.5 11C2.67157 11 2 10.3284 2 9.5C2 8.67157 2.67157 8 3.5 8C4.32843 8 5 8.67157 5 9.5ZM19 13C20.1046 13 21 12.1046 21 11C21 9.89543 20.1046 9 19 9C17.8954 9 17 9.89543 17 11C17 12.1046 17.8954 13 19 13ZM19 14C20.6569 14 22 12.6569 22 11C22 9.34315 20.6569 8 19 8C17.3431 8 16 9.34315 16 11C16 12.6569 17.3431 14 19 14ZM4 14.5C4 14.7761 3.77614 15 3.5 15C3.22386 15 3 14.7761 3 14.5C3 14.2239 3.22386 14 3.5 14C3.77614 14 4 14.2239 4 14.5ZM5 14.5C5 15.3284 4.32843 16 3.5 16C2.67157 16 2 15.3284 2 14.5C2 13.6716 2.67157 13 3.5 13C4.32843 13 5 13.6716 5 14.5ZM3.5 20C3.77614 20 4 19.7761 4 19.5C4 19.2239 3.77614 19 3.5 19C3.22386 19 3 19.2239 3 19.5C3 19.7761 3.22386 20 3.5 20ZM3.5 21C4.32843 21 5 20.3284 5 19.5C5 18.6716 4.32843 18 3.5 18C2.67157 18 2 18.6716 2 19.5C2 20.3284 2.67157 21 3.5 21ZM7 15V9H14V15H7ZM6 8.5C6 8.22386 6.22386 8 6.5 8H14.5C14.7761 8 15 8.22386 15 8.5V15.5C15 15.7761 14.7761 16 14.5 16H6.5C6.22386 16 6 15.7761 6 15.5V8.5ZM7 20H14V18H7V20ZM6.5 17C6.22386 17 6 17.2239 6 17.5V20.5C6 20.7761 6.22386 21 6.5 21H14.5C14.7761 21 15 20.7761 15 20.5V17.5C15 17.2239 14.7761 17 14.5 17H6.5ZM17 19H18.5V17H19.5V19H21V20H17V19ZM20.5 18H21.5C21.7761 18 22 18.2239 22 18.5V20.5C22 20.7761 21.7761 21 21.5 21H16.5C16.2239 21 16 20.7761 16 20.5V18.5C16 18.2239 16.2239 18 16.5 18H17.5V16.5C17.5 16.2239 17.7239 16 18 16H20C20.2761 16 20.5 16.2239 20.5 16.5V18Z" />
</svg>
