<svg width="24" height="24" viewBox="0 0 24 24" xmlns="http://www.w3.org/2000/svg">
<path fill-rule="evenodd" clip-rule="evenodd" d="M12 2.5C10.067 2.5 8.5 4.067 8.5 6C8.5 7.933 10.067 9.5 12 9.5C13.933 9.5 15.5 7.933 15.5 6C15.5 4.067 13.933 2.5 12 2.5ZM7.5 6C7.5 3.51472 9.51472 1.5 12 1.5C14.4853 1.5 16.5 3.51472 16.5 6C16.5 8.48528 14.4853 10.5 12 10.5C9.51472 10.5 7.5 8.48528 7.5 6Z"/>
<path fill-rule="evenodd" clip-rule="evenodd" d="M5 14.5C3.067 14.5 1.5 16.067 1.5 18C1.5 19.933 3.067 21.5 5 21.5C6.933 21.5 8.5 19.933 8.5 18C8.5 16.067 6.933 14.5 5 14.5ZM0.5 18C0.5 15.5147 2.51472 13.5 5 13.5C7.48528 13.5 9.5 15.5147 9.5 18C9.5 20.4853 7.48528 22.5 5 22.5C2.51472 22.5 0.5 20.4853 0.5 18Z"/>
<path fill-rule="evenodd" clip-rule="evenodd" d="M8.44895 6.24805L8.61002 6.87451C8.99828 8.38462 10.3695 9.49999 12 9.49999C13.6305 9.49999 15.0017 8.38462 15.39 6.87451L15.5511 6.24805L16.1167 6.56175C18.7296 8.01076 20.5 10.7983 20.5 14C20.5 14.0446 20.4997 14.0891 20.499 14.1335L20.4892 14.7681L19.8745 14.61C19.5955 14.5383 19.3026 14.5 19 14.5C17.067 14.5 15.5 16.067 15.5 18C15.5 18.9664 15.891 19.8405 16.5247 20.4744L16.9732 20.9231L16.4321 21.2544C15.1413 22.0446 13.6231 22.5 12 22.5C10.3769 22.5 8.85872 22.0446 7.56787 21.2544L7.02679 20.9231L7.47532 20.4744C8.10898 19.8405 8.5 18.9664 8.5 18C8.5 16.067 6.933 14.5 5 14.5C4.6974 14.5 4.40447 14.5383 4.12548 14.61L3.51081 14.7681L3.50103 14.1335C3.50034 14.0891 3.5 14.0446 3.5 14C3.5 10.7983 5.2704 8.01076 7.88327 6.56175L8.44895 6.24805ZM4.51474 13.5259C4.67426 13.5088 4.83617 13.5 5 13.5C7.48528 13.5 9.5 15.5147 9.5 18C9.5 19.0087 9.16771 19.9403 8.60726 20.6907C9.6257 21.2082 10.7782 21.5 12 21.5C13.2218 21.5 14.3743 21.2082 15.3927 20.6907C14.8323 19.9403 14.5 19.0087 14.5 18C14.5 15.5147 16.5147 13.5 19 13.5C19.1638 13.5 19.3257 13.5088 19.4853 13.5259C19.3349 11.1148 18.0454 9.0119 16.147 7.74974C15.4643 9.36565 13.8651 10.5 12 10.5C10.1349 10.5 8.53567 9.36565 7.85301 7.74974C5.9546 9.0119 4.66512 11.1148 4.51474 13.5259Z"/>
<path fill-rule="evenodd" clip-rule="evenodd" d="M19 14.5C17.067 14.5 15.5 16.067 15.5 18C15.5 19.933 17.067 21.5 19 21.5C20.933 21.5 22.5 19.933 22.5 18C22.5 16.067 20.933 14.5 19 14.5ZM14.5 18C14.5 15.5147 16.5147 13.5 19 13.5C21.4853 13.5 23.5 15.5147 23.5 18C23.5 20.4853 21.4853 22.5 19 22.5C16.5147 22.5 14.5 20.4853 14.5 18Z"/>
</svg>
