<svg width="24" height="24" viewBox="0 0 24 24" xmlns="http://www.w3.org/2000/svg">
<path fill-rule="evenodd" clip-rule="evenodd" d="M19 1H5C2.79086 1 1 2.79086 1 5V16.7915L4.10461 13.3049C4.19705 13.178 4.34198 13.1046 4.49487 13.1072C4.64775 13.1098 4.79029 13.1882 4.87867 13.3181L8.50727 17.6546L16.1255 8.19774C16.2157 8.07386 16.3561 8.00078 16.5054 8.00001C16.6547 7.99923 16.7958 8.07086 16.8873 8.19379L23 16.413V5C23 2.79086 21.2091 1 19 1ZM0 19V18.1068V18.1067V5C0 2.23858 2.23858 0 5 0H19C21.7614 0 24 2.23858 24 5V19C24 21.7614 21.7614 24 19 24H5C2.23858 24 0 21.7614 0 19ZM4.47362 14.4526L1 18.2586V19C1 21.2091 2.79086 23 5 23H19C21.2091 23 23 21.2091 23 19V18.0458L16.5117 9.32171L8.87628 18.8023C8.78385 18.9291 8.63891 19.0026 8.48603 18.9999C8.33314 18.9973 8.1906 18.919 8.10222 18.789L4.47362 14.4526ZM9 6C9 7.10457 8.10457 8 7 8C5.89543 8 5 7.10457 5 6C5 4.89543 5.89543 4 7 4C8.10457 4 9 4.89543 9 6ZM10 6C10 7.65685 8.65685 9 7 9C5.34315 9 4 7.65685 4 6C4 4.34315 5.34315 3 7 3C8.65685 3 10 4.34315 10 6Z"/>
</svg>
