<svg width="24" height="24" viewBox="0 0 24 24" xmlns="http://www.w3.org/2000/svg">
<mask id="mask0_2481_5691" style="mask-type:alpha" maskUnits="userSpaceOnUse" x="0" y="0" width="24" height="24">
<path d="M0 0H24V24H0V0Z"/>
</mask>
<g mask="url(#mask0_2481_5691)">
<path fill-rule="evenodd" clip-rule="evenodd" d="M12.8744 12.8241L13.5302 13.179C15.805 14.4103 18.7065 14.063 20.6274 12.1421C22.9706 9.79899 22.9706 6 20.6274 3.65685C18.2843 1.31371 14.4853 1.31371 12.1421 3.65685C10.2212 5.57774 9.87392 8.4793 11.1052 10.754L11.4602 11.4098L2.94974 19.9203L4.36395 21.3345L12.8744 12.8241ZM13.0542 14.0585C15.7073 15.4946 19.0923 15.0915 21.3345 12.8492C24.0682 10.1156 24.0682 5.68342 21.3345 2.94975C18.6008 0.216077 14.1687 0.216077 11.435 2.94975C9.19277 5.192 8.78969 8.57696 10.2258 11.2301L1.53552 19.9203L4.36395 22.7487L7.19238 19.9203L8.60659 21.3345L10.0208 19.9203L8.60659 18.5061L10.0208 17.0919L11.435 18.5061L12.8492 17.0919L11.435 15.6777L13.0542 14.0585Z"/>
</g>
<path fill-rule="evenodd" clip-rule="evenodd" d="M17.5 8C18.3284 8 19 7.32843 19 6.5C19 5.67157 18.3284 5 17.5 5C16.6716 5 16 5.67157 16 6.5C16 7.32843 16.6716 8 17.5 8ZM17.5 9C18.8807 9 20 7.88071 20 6.5C20 5.11929 18.8807 4 17.5 4C16.1193 4 15 5.11929 15 6.5C15 7.88071 16.1193 9 17.5 9Z"/>
</svg>
