<svg width="24" height="24" viewBox="0 0 24 24" xmlns="http://www.w3.org/2000/svg">
<path fill-rule="evenodd" clip-rule="evenodd" d="M19 1H5C2.79086 1 1 2.79086 1 5V19C1 21.2091 2.79086 23 5 23H19C21.2091 23 23 21.2091 23 19V5C23 2.79086 21.2091 1 19 1ZM5 0C2.23858 0 0 2.23858 0 5V19C0 21.7614 2.23858 24 5 24H19C21.7614 24 24 21.7614 24 19V5C24 2.23858 21.7614 0 19 0H5Z"/>
<path d="M15.56 15.56H14.52V9.53L14.39 10.11L12.61 15.35C12.5567 15.49 12.4667 15.56 12.34 15.56H11.71C11.5767 15.56 11.49 15.49 11.45 15.35L9.66 10.12L9.54 9.54V15.56H8.5V8.27C8.5 8.16333 8.51667 8.09333 8.55 8.06C8.58333 8.02 8.65333 8 8.76 8H9.62C9.71333 8 9.78333 8.02 9.83 8.06C9.87667 8.1 9.91333 8.15667 9.94 8.23L11.79 13.52L12.03 14.36L12.27 13.52L14.12 8.23C14.1467 8.15667 14.1833 8.1 14.23 8.06C14.2767 8.02 14.3467 8 14.44 8H15.3C15.4067 8 15.4767 8.02 15.51 8.06C15.5433 8.09333 15.56 8.16333 15.56 8.27V15.56Z"/>
</svg>
