<svg width="24" height="24" viewBox="0 0 24 24" xmlns="http://www.w3.org/2000/svg">
<path fill-rule="evenodd" clip-rule="evenodd" d="M20.2863 3.13635H3.71369L1.40119 9.86363L22.5988 9.86363L20.2863 3.13635ZM3.71369 2.13635C3.2867 2.13635 2.90681 2.40747 2.76801 2.81127L0.455505 9.53855C0.23234 10.1878 0.714697 10.8636 1.40119 10.8636H22.5988C23.2853 10.8636 23.7677 10.1878 23.5445 9.53855L21.232 2.81127C21.0932 2.40747 20.7133 2.13635 20.2863 2.13635H3.71369Z"/>
<path fill-rule="evenodd" clip-rule="evenodd" d="M16.9225 3.13635H7.0777L5.60611 9.86363L18.394 9.86363L16.9225 3.13635ZM7.0777 2.13635C6.60776 2.13635 6.20122 2.46357 6.1008 2.92265L4.62921 9.64993C4.49279 10.2736 4.96772 10.8636 5.60611 10.8636H18.394C19.0324 10.8636 19.5074 10.2736 19.3709 9.64993L17.8994 2.92266C17.7989 2.46357 17.3924 2.13635 16.9225 2.13635H7.0777Z"/>
<path fill-rule="evenodd" clip-rule="evenodd" d="M13.544 3.13635L10.4562 3.13635L10.4562 3.13635L9.82553 9.86363H14.1747L13.544 3.13635ZM10.4562 2.13635C9.94008 2.13635 9.50875 2.52914 9.46057 3.04301L8.82989 9.77028C8.7749 10.3569 9.23637 10.8636 9.82553 10.8636H14.1747C14.7639 10.8636 15.2253 10.3569 15.1703 9.77028L14.5397 3.04301C14.4915 2.52914 14.0602 2.13635 13.544 2.13635H10.4562Z"/>
<path fill-rule="evenodd" clip-rule="evenodd" d="M20.8182 10.7727H3.18188V19.6818H20.8182V10.7727ZM2.18188 9.77271V20.6818H21.8182V9.77271H2.18188Z"/>
<path fill-rule="evenodd" clip-rule="evenodd" d="M8.81823 14.0454H6.45459V19.6818H8.81823V14.0454ZM5.45459 13.0454V20.6818H9.81823V13.0454H5.45459Z"/>
<path fill-rule="evenodd" clip-rule="evenodd" d="M17.5455 12.9545H15.1819V15.3182H17.5455V12.9545ZM14.1819 11.9545V16.3182H18.5455V11.9545H14.1819Z"/>
<path fill-rule="evenodd" clip-rule="evenodd" d="M21.909 20.5909H2.09082V21.8636L21.909 21.8636V20.5909ZM2.09082 19.5909C1.53854 19.5909 1.09082 20.0386 1.09082 20.5909V21.8636C1.09082 22.4159 1.53854 22.8636 2.09082 22.8636H21.909C22.4613 22.8636 22.909 22.4159 22.909 21.8636V20.5909C22.909 20.0386 22.4613 19.5909 21.909 19.5909H2.09082Z"/>
</svg>
