<svg width="24" height="24" viewBox="0 0 24 24" xmlns="http://www.w3.org/2000/svg">
<path d="M3.20019 10.0039C4.30476 10.0039 5.20019 10.8993 5.20019 12.0039C5.20019 13.1085 4.30476 14.0039 3.2002 14.0039C2.09563 14.0039 1.2002 13.1085 1.2002 12.0039C1.2002 10.8993 2.09563 10.0039 3.20019 10.0039Z"/>
<path d="M12.2 10.0039C13.3045 10.0039 14.2 10.8993 14.2 12.0039C14.2 13.1085 13.3045 14.0039 12.2 14.0039C11.0954 14.0039 10.2 13.1085 10.2 12.0039C10.2 10.8993 11.0954 10.0039 12.2 10.0039Z"/>
<path d="M21.2007 10.0039C22.3053 10.0039 23.2007 10.8993 23.2007 12.0039C23.2007 13.1085 22.3053 14.0039 21.2007 14.0039C20.0961 14.0039 19.2007 13.1085 19.2007 12.0039C19.2007 10.8993 20.0961 10.0039 21.2007 10.0039Z"/>
</svg>
