<svg width="24" height="24" viewBox="0 0 24 24" fill="none" xmlns="http://www.w3.org/2000/svg">
<path fill-rule="evenodd" clip-rule="evenodd" d="M7.36601 1.97369L5.63396 2.97369C2.7642 4.63055 1.78095 8.30009 3.4378 11.1698L7.9378 18.9641C9.8708 22.3121 14.1519 23.4592 17.5 21.5262C20.848 19.5933 21.9952 15.3121 20.0622 11.9641L15.5622 4.16984C13.9053 1.30009 10.2358 0.316837 7.36601 1.97369ZM5.13396 2.10767C1.78591 4.04066 0.638781 8.3218 2.57178 11.6698L7.07178 19.4641C9.28092 23.2904 14.1736 24.6014 18 22.3923C21.8263 20.1831 23.1373 15.2904 20.9282 11.4641L16.4282 3.66984C14.4952 0.321795 10.2141 -0.825331 6.86601 1.10767L5.13396 2.10767ZM11.8661 9.76793L10.3661 7.16986C10.0907 6.69277 9.4815 6.52852 9.00375 6.80174L8.9965 6.80593C8.521 7.08307 8.35865 7.69277 8.63409 8.16986L10.1341 10.7679C10.4102 11.2462 11.0218 11.4101 11.5001 11.134C11.9784 10.8578 12.1423 10.2462 11.8661 9.76793ZM8.09863 6.24235C7.46258 6.86593 7.3021 7.86278 7.76807 8.66986L9.26807 11.2679C9.82035 12.2245 11.0435 12.5523 12.0001 12C12.9567 11.4477 13.2845 10.2245 12.7322 9.26793L11.2322 6.66986C10.7662 5.8628 9.82272 5.50335 8.96467 5.74236L6.93316 2.22369L6.06714 2.72369L8.09863 6.24235Z"/>
</svg>
