<svg width="24" height="24" viewBox="0 0 24 24" fill="none" xmlns="http://www.w3.org/2000/svg">
<path fill-rule="evenodd" clip-rule="evenodd" d="M11 1L13 1C16.3137 1 19 3.68629 19 7V16C19 19.866 15.866 23 12 23C8.13401 23 5 19.866 5 16L5 7C5 3.68629 7.68629 1 11 1ZM4 7C4 3.13401 7.13401 0 11 0H13C16.866 0 20 3.13401 20 7V16C20 20.4183 16.4183 24 12 24C7.58172 24 4 20.4183 4 16V7ZM10 7.00049C10 6.06857 10.6374 5.28552 11.5 5.0635L11.5 1.00049H12.5V5.0635C13.3626 5.28552 14 6.06857 14 7.00049V10.0005C14 11.1051 13.1046 12.0005 12 12.0005C10.8954 12.0005 10 11.1051 10 10.0005V7.00049ZM11 7.00049C11 6.4482 11.4477 6.00049 12 6.00049C12.5523 6.00049 13 6.4482 13 7.00049V10.0005C13 10.5528 12.5523 11.0005 12 11.0005C11.4477 11.0005 11 10.5528 11 10.0005V7.00049Z"/>
</svg>
