<svg width="25" height="24" viewBox="0 0 25 24" fill="none" xmlns="http://www.w3.org/2000/svg">
<path fill-rule="evenodd" clip-rule="evenodd" d="M5.63014 11.4272L3.63014 19.4272C3.5828 19.6166 3.72601 19.8 3.92118 19.8H20.7482C20.8931 19.8 21.0174 19.6963 21.0433 19.5537L22.4979 11.5537C22.5313 11.3695 22.3899 11.2 22.2027 11.2H5.92118C5.78352 11.2 5.66352 11.2937 5.63014 11.4272ZM2.46597 19.1362L4.46597 11.1362C4.6329 10.4684 5.23288 10 5.92118 10H22.2027C23.1386 10 23.8459 10.8476 23.6785 11.7683L22.224 19.7683C22.0943 20.4816 21.4731 21 20.7482 21H3.92118C2.94532 21 2.22929 20.0829 2.46597 19.1362Z" />
<path fill-rule="evenodd" clip-rule="evenodd" d="M3.40001 4.2L8.5366 4.2L10.4011 6.3658L11.3105 5.5829L10.4011 6.3658C10.857 6.89541 11.5211 7.2 12.2199 7.2H20.8V10.2H22V7.2C22 6.53726 21.4628 6 20.8 6H12.2199C11.8705 6 11.5385 5.84771 11.3105 5.5829L9.44604 3.4171C9.21807 3.15229 8.88602 3 8.5366 3H3.40001C2.73727 3 2.20001 3.53726 2.20001 4.2V19.8C2.20001 20.4627 2.73727 21 3.40001 21H4.12118C3.14532 21 2.42928 20.0829 2.66596 19.1362L3.40001 16.2V4.2L3.40001 4.2ZM20.5845 21H20.8C21.3646 21 21.8382 20.6101 21.966 20.0848C21.7355 20.6298 21.1971 21 20.5845 21Z" />
</svg>
