<svg width="16" height="16" viewBox="0 0 16 16" fill="none" xmlns="http://www.w3.org/2000/svg">
<path fill-rule="evenodd" clip-rule="evenodd" d="M0.666667 2.00065H15.3333V11.334H9.84635H6.15365H0.666667V2.00065ZM15.3333 12.0007H9.96354L10.5495 15.334H12.6667V16.0007H10.6667H5.33333H3.33333V15.334H5.45052L6.03646 12.0007H0.666667C0.298177 12.0007 0 11.7022 0 11.334V2.00065C0 1.63245 0.298177 1.33398 0.666667 1.33398H15.3333C15.7018 1.33398 16 1.63245 16 2.00065V11.334C16 11.7022 15.7018 12.0007 15.3333 12.0007ZM6.71354 12.0007H9.28646L9.8724 15.334H6.1276L6.71354 12.0007ZM10.1953 10.0007L12 8.19592V9.13871L11.138 10.0007H10.1953ZM12.6667 10.0007V8.47205V7.52926V7.33398C12.6667 7.10384 12.5501 6.90096 12.373 6.78117L12.3639 6.77507C12.2591 6.70687 12.1341 6.66732 12 6.66732H11.5286H10.4714H9.52865H8.47135H7.52865H6.47135H5.52865H4C3.63151 6.66732 3.33333 6.96578 3.33333 7.33398V8.86259V9.80538V10.0007C3.33333 10.2308 3.44987 10.4337 3.62695 10.5535L3.63607 10.5596C3.69727 10.5992 3.76497 10.6292 3.83724 10.6473C3.88932 10.6604 3.94401 10.6673 4 10.6673H4.47135H5.52865H6.47135H7.52865H8.47135H9.52865H10.4714H12C12.3685 10.6673 12.6667 10.3689 12.6667 10.0007ZM8.86198 7.33398H9.80469L7.13802 10.0007H6.19531L8.86198 7.33398ZM10.862 7.33398L8.19531 10.0007H9.13802L11.8047 7.33398H10.862ZM7.80469 7.33398L5.13802 10.0007H4.19531L6.86198 7.33398H7.80469ZM5.80469 7.33398L4 9.13871V8.19592L4.86198 7.33398H5.80469Z" />
</svg>
