<svg width="24" height="24" viewBox="0 0 24 24" xmlns="http://www.w3.org/2000/svg">
<path fill-rule="evenodd" clip-rule="evenodd" d="M2.88206 5.12383C4.83216 3.14464 7.88226 1.74778 12.3747 2.03832C18.118 2.40974 21.9067 6.14265 23.3444 10.3266C24.763 14.4551 23.9486 19.3032 20.1146 21.6835C18.4253 22.7323 17.0361 23.2082 15.8441 22.915C14.6039 22.61 13.9649 21.5704 13.5367 20.7348C13.3808 20.4304 13.2378 20.1302 13.0989 19.8385C12.378 18.3244 11.7662 17.0395 10.0082 16.5847C8.82765 16.2793 7.66641 16.2591 6.54896 16.318C6.14862 16.3392 5.7699 16.3692 5.39342 16.3991C5.23687 16.4115 5.08072 16.4239 4.92356 16.4356C4.4059 16.4742 3.88133 16.5049 3.39103 16.4864C2.41944 16.4499 1.3331 16.2095 0.64655 15.1847C0.0243526 14.2559 -0.0998451 12.9085 0.0675958 11.1651C0.195265 9.48344 0.969913 7.0645 2.88206 5.12383ZM1.064 11.2506C1.28451 8.28428 3.84246 2.48861 12.3102 3.03623C22.8948 3.72076 26.2025 16.7268 19.5871 20.834C15.7811 23.1969 15.0185 21.5672 14.0494 19.496C13.3341 17.9673 12.5062 16.198 10.2587 15.6166C8.46375 15.1522 6.75264 15.2881 5.30074 15.4033C2.47168 15.6278 0.626819 15.7743 1.064 11.2506Z"/>
<path fill-rule="evenodd" clip-rule="evenodd" d="M9.18534 5.94537C8.28708 5.42676 7.13848 5.73453 6.61987 6.63279C6.10126 7.53105 6.40902 8.67966 7.30728 9.19827C8.20555 9.71688 9.35415 9.40911 9.87276 8.51085C10.3914 7.61259 10.0836 6.46399 9.18534 5.94537ZM5.75384 6.13279C6.5486 4.75624 8.30879 4.2846 9.68534 5.07935C11.0619 5.8741 11.5335 7.6343 10.7388 9.01085C9.94403 10.3874 8.18384 10.859 6.80728 10.0643C5.43073 9.26954 4.95909 7.50935 5.75384 6.13279Z"/>
<path fill-rule="evenodd" clip-rule="evenodd" d="M15.5701 6.66477C14.8371 6.45438 14.0724 6.87802 13.862 7.61097C13.6516 8.34393 14.0752 9.10866 14.8082 9.31905C15.5411 9.52943 16.3059 9.1058 16.5163 8.37284C16.7266 7.63988 16.303 6.87515 15.5701 6.66477ZM12.9008 7.33508C13.2635 6.07127 14.5821 5.34082 15.8459 5.70358C17.1098 6.06633 17.8402 7.38492 17.4775 8.64873C17.1147 9.91254 15.7961 10.643 14.5323 10.2802C13.2685 9.91748 12.538 8.59889 12.9008 7.33508Z"/>
<path fill-rule="evenodd" clip-rule="evenodd" d="M19.5949 10.7726C19.2054 10.573 18.7278 10.7268 18.5282 11.1163C18.3285 11.5058 18.4823 11.9834 18.8718 12.1831C19.2613 12.3827 19.7389 12.2289 19.9386 11.8394C20.1383 11.4499 19.9844 10.9723 19.5949 10.7726ZM17.6383 10.6601C18.0899 9.77915 19.1702 9.43113 20.0511 9.88277C20.9321 10.3344 21.2801 11.4147 20.8285 12.2956C20.3768 13.1766 19.2965 13.5246 18.4156 13.0729C17.5347 12.6213 17.1867 11.541 17.6383 10.6601Z"/>
<path fill-rule="evenodd" clip-rule="evenodd" d="M19.5976 15.7969C19.2633 15.6255 18.8533 15.7576 18.6819 16.092C18.5105 16.4263 18.6426 16.8363 18.9769 17.0077C19.3112 17.1791 19.7212 17.047 19.8926 16.7127C20.064 16.3783 19.932 15.9684 19.5976 15.7969ZM17.792 15.6357C18.2154 14.8099 19.228 14.4837 20.0538 14.9071C20.8796 15.3304 21.2059 16.3431 20.7825 17.1689C20.3591 17.9947 19.3465 18.3209 18.5207 17.8976C17.6949 17.4742 17.3686 16.4615 17.792 15.6357Z"/>
</svg>
