<svg width="24" height="24" viewBox="0 0 24 24"  xmlns="http://www.w3.org/2000/svg">
<path fill-rule="evenodd" clip-rule="evenodd" d="M21 3.5H3C2.72386 3.5 2.5 3.72386 2.5 4V15C2.5 15.2761 2.72386 15.5 3 15.5H21C21.2761 15.5 21.5 15.2761 21.5 15V4C21.5 3.72386 21.2761 3.5 21 3.5ZM3 2C1.89543 2 1 2.89543 1 4V15C1 16.1046 1.89543 17 3 17H21C22.1046 17 23 16.1046 23 15V4C23 2.89543 22.1046 2 21 2H3Z"/>
<path d="M4 22.5C4 22.2239 4.22386 22 4.5 22H19.5C19.7761 22 20 22.2239 20 22.5C20 22.7761 19.7761 23 19.5 23H4.5C4.22386 23 4 22.7761 4 22.5Z"/>
<path d="M10 16.5H14L14.5 22H9.5L10 16.5Z"/>
</svg>
