<svg width="24" height="24" viewBox="0 0 24 24" xmlns="http://www.w3.org/2000/svg">
<path fill-rule="evenodd" clip-rule="evenodd" d="M9.24951 5.5C8.8353 5.5 8.49951 5.79381 8.49951 6.15625L8.49951 18.8438C8.49951 19.2062 8.8353 19.5 9.24951 19.5C9.66372 19.5 9.99951 19.2062 9.99951 18.8438L9.99951 6.15625C9.99951 5.79381 9.66373 5.5 9.24951 5.5Z"/>
<path fill-rule="evenodd" clip-rule="evenodd" d="M3.75 5.49951C3.33579 5.49951 3 5.79332 3 6.15576L3 18.8433C3 19.2057 3.33579 19.4995 3.75 19.4995C4.16421 19.4995 4.5 19.2057 4.5 18.8433L4.5 6.15576C4.5 5.79332 4.16421 5.49951 3.75 5.49951Z"/>
<path d="M13.9998 18.9325V6.06754C13.9998 5.64363 14.4942 5.41205 14.8198 5.68343L22.5388 12.1159C22.7787 12.3158 22.7787 12.6842 22.5388 12.8841L14.8198 19.3166C14.4942 19.588 13.9998 19.3564 13.9998 18.9325Z"/>
</svg>
