<svg width="24" height="24" viewBox="0 0 24 24" fill="none" xmlns="http://www.w3.org/2000/svg">
<path fill-rule="evenodd" clip-rule="evenodd" d="M19.2866 3.80057L22.4938 0.593368L23.4062 1.50586L20.199 4.71306L19.2866 3.80057Z"/>
<path fill-rule="evenodd" clip-rule="evenodd" d="M4.71336 20.1995L1.50624 23.4066L0.59375 22.4941L3.80087 19.287L4.71336 20.1995Z"/>
<path fill-rule="evenodd" clip-rule="evenodd" d="M18.4655 11.1636L19.3011 10.328C20.8554 8.77371 20.8554 6.25363 19.3011 4.6993C17.7467 3.14497 15.2267 3.14497 13.6723 4.6993L12.8367 5.53489L18.4655 11.1636ZM20.2136 11.2405C22.2719 9.18224 22.2719 5.8451 20.2136 3.78681C18.1553 1.72852 14.8181 1.72852 12.7598 3.78681L11.0118 5.53489L18.4655 12.9886L20.2136 11.2405Z"/>
<path fill-rule="evenodd" clip-rule="evenodd" d="M5.53647 12.8364L4.70088 13.672C3.14654 15.2263 3.14654 17.7464 4.70088 19.3007C6.25521 20.855 8.77528 20.855 10.3296 19.3007L11.1652 18.4651L5.53647 12.8364ZM3.78839 12.7595C1.7301 14.8178 1.7301 18.1549 3.78839 20.2132C5.84667 22.2715 9.18382 22.2715 11.2421 20.2132L12.9902 18.4651L5.53647 11.0114L3.78839 12.7595Z"/>
<path fill-rule="evenodd" clip-rule="evenodd" d="M14.4656 12.6414C14.7176 12.8934 14.7176 13.3019 14.4656 13.5539L10.8157 17.2039C10.5637 17.4558 10.1552 17.4558 9.90318 17.2039C9.6512 16.9519 9.6512 16.5434 9.90318 16.2914L13.5531 12.6414C13.8051 12.3894 14.2137 12.3894 14.4656 12.6414Z"/>
<path fill-rule="evenodd" clip-rule="evenodd" d="M11.3602 9.53399C11.6121 9.78597 11.6121 10.1945 11.3602 10.4465L7.7102 14.0964C7.45822 14.3484 7.04968 14.3484 6.79771 14.0964C6.54573 13.8445 6.54573 13.4359 6.79771 13.184L10.4477 9.53399C10.6996 9.28201 11.1082 9.28201 11.3602 9.53399Z"/>
</svg>
