<svg width="25" height="24" viewBox="0 0 25 24" fill="none" xmlns="http://www.w3.org/2000/svg">
<path fill-rule="evenodd" clip-rule="evenodd" d="M1.41686 0.175683C1.50773 0.0415558 1.67052 -0.0245228 1.82916 0.00832895L6.48141 0.971726C6.58652 0.993492 6.67847 1.05659 6.73659 1.14683C6.79472 1.23707 6.81413 1.34689 6.79048 1.45159L5.81572 5.76593C5.78125 5.9185 5.66103 6.03697 5.50798 6.06921C5.35492 6.10144 5.19713 6.04152 5.10405 5.91582L4.34813 4.89492C2.21657 5.69722 1.6092 7.57849 1.57167 8.41828C1.56375 8.59554 1.44001 8.74639 1.26773 8.78883C1.09545 8.83127 0.915799 8.75515 0.826451 8.60186C-0.193291 6.85231 -0.156583 5.27276 0.330432 4.01399C0.738505 2.95927 1.45517 2.14644 2.08994 1.64254L1.41435 0.620644C1.32501 0.4855 1.326 0.309811 1.41686 0.175683ZM2.61655 0.988396L2.96787 1.51981C3.08961 1.70394 3.03918 1.95188 2.85519 2.07384C2.26837 2.46282 1.48554 3.24564 1.07657 4.30267C0.769145 5.09726 0.66675 6.06041 1.03761 7.15728C1.45513 6.01902 2.42443 4.65428 4.37486 4.03965C4.53763 3.98836 4.71501 4.04598 4.81657 4.18313L5.22768 4.73835L5.92035 1.67255L2.61655 0.988396Z" />
<path fill-rule="evenodd" clip-rule="evenodd" d="M22.5844 23.8243C22.4935 23.9584 22.3307 24.0245 22.1721 23.9917L17.5198 23.0283C17.4147 23.0065 17.3228 22.9434 17.2646 22.8532C17.2065 22.7629 17.1871 22.6531 17.2107 22.5484L18.1855 18.2341C18.22 18.0815 18.3402 17.963 18.4932 17.9308C18.6463 17.8986 18.8041 17.9585 18.8972 18.0842L19.6531 19.1051C21.7847 18.3028 22.392 16.4215 22.4296 15.5817C22.4375 15.4045 22.5612 15.2536 22.7335 15.2112C22.9058 15.1687 23.0854 15.2449 23.1748 15.3981C24.1945 17.1477 24.1578 18.7272 23.6708 19.986C23.2627 21.0407 22.5461 21.8536 21.9113 22.3575L22.5869 23.3794C22.6762 23.5145 22.6752 23.6902 22.5844 23.8243ZM21.3847 23.0116L21.0333 22.4802C20.9116 22.2961 20.962 22.0481 21.146 21.9262C21.7329 21.5372 22.5157 20.7544 22.9246 19.6973C23.2321 18.9027 23.3345 17.9396 22.9636 16.8427C22.5461 17.981 21.5768 19.3457 19.6264 19.9604C19.4636 20.0116 19.2862 19.954 19.1847 19.8169L18.7735 19.2616L18.0809 22.3274L21.3847 23.0116Z" />
<path fill-rule="evenodd" clip-rule="evenodd" d="M11.7978 3.06976C11.9606 2.97675 12.1604 2.97675 12.3231 3.06976L19.7353 7.30526C19.9002 7.39952 20.002 7.57495 20.002 7.76494C20.002 7.95493 19.9002 8.13036 19.7353 8.22462L12.3231 12.4601C12.1604 12.5531 11.9606 12.5531 11.7978 12.4601L4.38566 8.22462C4.2207 8.13036 4.1189 7.95493 4.1189 7.76494C4.1189 7.57495 4.2207 7.39952 4.38566 7.30526L11.7978 3.06976ZM5.71545 7.76494L12.0605 11.3907L18.4055 7.76494L12.0605 4.13922L5.71545 7.76494Z" />
<path fill-rule="evenodd" clip-rule="evenodd" d="M4.3826 7.307C4.54583 7.21227 4.74715 7.21159 4.91101 7.30523L12.3231 11.5407C12.4881 11.635 12.5899 11.8104 12.5899 12.0004V20.4714C12.5899 20.6601 12.4894 20.8346 12.3262 20.9293C12.163 21.0241 11.9617 21.0247 11.7978 20.9311L4.38566 16.6956C4.2207 16.6013 4.1189 16.4259 4.1189 16.2359V7.76491C4.1189 7.57618 4.21936 7.40172 4.3826 7.307ZM5.17777 8.67723V15.9287L11.531 19.5591V12.3077L5.17777 8.67723Z" />
<path fill-rule="evenodd" clip-rule="evenodd" d="M19.737 7.30681C19.5738 7.21208 19.3725 7.21141 19.2086 7.30505L11.7965 11.5405C11.6315 11.6348 11.5297 11.8102 11.5297 12.0002V20.4712C11.5297 20.66 11.6302 20.8344 11.7934 20.9292C11.9567 21.0239 12.158 21.0246 12.3218 20.9309L19.734 16.6954C19.8989 16.6012 20.0007 16.4257 20.0007 16.2357V7.76473C20.0007 7.576 19.9003 7.40154 19.737 7.30681ZM18.9419 8.67704V15.9285L12.5886 19.5589V12.3075L18.9419 8.67704Z" />
</svg>
