<svg width="24" height="24" viewBox="0 0 24 24"  xmlns="http://www.w3.org/2000/svg">
<path fill-rule="evenodd" clip-rule="evenodd" d="M5 16V23H23V8H19V1L1 1V16H5ZM1 17C0.447716 17 0 16.5523 0 16V1C0 0.447715 0.447715 0 1 0H19C19.5523 0 20 0.447715 20 1V7H23C23.5523 7 24 7.44772 24 8V23C24 23.5523 23.5523 24 23 24H5C4.44772 24 4 23.5523 4 23V17H1Z" />
<path d="M16 2.5C16 2.77614 15.7761 3 15.5 3C15.2239 3 15 2.77614 15 2.5C15 2.22386 15.2239 2 15.5 2C15.7761 2 16 2.22386 16 2.5Z" />
<path d="M18 2.5C18 2.77614 17.7761 3 17.5 3C17.2239 3 17 2.77614 17 2.5C17 2.22386 17.2239 2 17.5 2C17.7761 2 18 2.22386 18 2.5Z" />
<path fill-rule="evenodd" clip-rule="evenodd" d="M23 8H5V23H23V8ZM5 7C4.44772 7 4 7.44772 4 8V23C4 23.5523 4.44772 24 5 24H23C23.5523 24 24 23.5523 24 23V8C24 7.44772 23.5523 7 23 7H5Z"/>
<path fill-rule="evenodd" clip-rule="evenodd" d="M20 12H8C7.44772 12 7 12.4477 7 13V20C7 20.5523 7.44772 21 8 21H20C20.5523 21 21 20.5523 21 20V13C21 12.4477 20.5523 12 20 12ZM8 11C6.89543 11 6 11.8954 6 13V20C6 21.1046 6.89543 22 8 22H20C21.1046 22 22 21.1046 22 20V13C22 11.8954 21.1046 11 20 11H8Z"/>
<path d="M20 9.5C20 9.77614 19.7761 10 19.5 10C19.2239 10 19 9.77614 19 9.5C19 9.22386 19.2239 9 19.5 9C19.7761 9 20 9.22386 20 9.5Z" />
<path d="M22 9.5C22 9.77614 21.7761 10 21.5 10C21.2239 10 21 9.77614 21 9.5C21 9.22386 21.2239 9 21.5 9C21.7761 9 22 9.22386 22 9.5Z" />
</svg>
