<svg width="24" height="24" viewBox="0 0 24 24" fill="none" xmlns="http://www.w3.org/2000/svg">
  <path fill-rule="evenodd" clip-rule="evenodd"
    d="M6 16L12 22V2L6 8H3.5C2.11929 8 1 9.11929 1 10.5V13.5C1 14.8807 2.11929 16 3.5 16H6ZM10.75 5.01777L6.51777 9.25H3.5C2.80964 9.25 2.25 9.80964 2.25 10.5V13.5C2.25 14.1904 2.80964 14.75 3.5 14.75H6.51777L10.75 18.9822V5.01777Z" />
  <mask id="mask0_2172_5485" style="mask-type:alpha" maskUnits="userSpaceOnUse" x="14" y="2" width="8" height="20">
    <path d="M14 2H22V22H14V2Z" />
  </mask>
  <g mask="url(#mask0_2172_5485)">
    <path fill-rule="evenodd" clip-rule="evenodd"
      d="M11.6966 16.75C14.5119 16.75 16.7037 14.5744 16.7037 12C16.7037 9.42557 14.5119 7.25 11.6966 7.25C8.88127 7.25 6.68945 9.42557 6.68945 12C6.68945 14.5744 8.88127 16.75 11.6966 16.75ZM11.6966 18C15.1523 18 17.9537 15.3137 17.9537 12C17.9537 8.68629 15.1523 6 11.6966 6C8.24087 6 5.43945 8.68629 5.43945 12C5.43945 15.3137 8.24087 18 11.6966 18Z" />
  </g>
  <mask id="mask1_2172_5485" style="mask-type:alpha" maskUnits="userSpaceOnUse" x="2" y="2" width="20" height="20">
    <path fill-rule="evenodd" clip-rule="evenodd"
      d="M12 20.75C16.8325 20.75 20.75 16.8325 20.75 12C20.75 7.16751 16.8325 3.25 12 3.25C7.16751 3.25 3.25 7.16751 3.25 12C3.25 16.8325 7.16751 20.75 12 20.75ZM12 22C17.5228 22 22 17.5228 22 12C22 6.47715 17.5228 2 12 2C6.47715 2 2 6.47715 2 12C2 17.5228 6.47715 22 12 22Z" />
  </mask>
  <g mask="url(#mask1_2172_5485)">
    <path d="M14 2H22V22H14V2Z" />
  </g>
</svg>