<svg width="24" height="24" viewBox="0 0 24 24" fill="none" xmlns="http://www.w3.org/2000/svg">
<path fill-rule="evenodd" clip-rule="evenodd" d="M3 0C1.34314 0 0 1.34326 0 3V21C0 22.6567 1.34314 24 3 24H21C22.6569 24 24 22.6567 24 21V3C24 1.34326 22.6569 0 21 0H3ZM19.491 14.175H20.734V6.62891H19.491V12.239H17.335V13.196H19.491V14.175ZM17.687 11.656C18.2663 11.6194 18.7687 11.5608 19.194 11.48V10.468C18.952 10.512 18.6513 10.5522 18.292 10.5891L17.7381 10.6345L17.203 10.677C16.829 10.699 16.477 10.7173 16.147 10.7319L15.7834 10.739L15.5977 10.7417L15.388 10.7429H12.539V11.7551H14.607V13.3059H15.85V11.7329C16.4953 11.7183 17.1077 11.6926 17.687 11.656ZM14.332 16.2871H20.921V15.231H15.311V13.647H14.035V15.979C14.035 16.0298 14.0384 16.0737 14.0453 16.1106C14.0543 16.1592 14.0692 16.196 14.09 16.2209C14.134 16.2651 14.2147 16.2871 14.332 16.2871ZM17.5 9.70898C17.94 9.37891 18.16 8.93896 18.16 8.38892C18.16 7.86108 17.94 7.4209 17.5 7.06909C17.06 6.71704 16.455 6.54102 15.685 6.54102C14.937 6.54102 14.343 6.71704 13.903 7.06909C13.463 7.4209 13.243 7.86108 13.243 8.38892C13.243 8.6604 13.298 8.90967 13.408 9.13696C13.5253 9.35693 13.6903 9.54761 13.903 9.70898C14.1157 9.86304 14.3723 9.98413 14.673 10.072C14.9737 10.1599 15.311 10.2041 15.685 10.2041C16.455 10.2041 17.06 10.0391 17.5 9.70898ZM16.928 8.38892C16.928 8.66772 16.829 8.87671 16.631 9.01611C16.4477 9.15527 16.1323 9.2251 15.685 9.2251C15.267 9.2251 14.9627 9.15527 14.772 9.01611C14.5813 8.87671 14.486 8.66772 14.486 8.38892C14.486 8.125 14.5813 7.91968 14.772 7.77295C14.9627 7.62646 15.267 7.55298 15.685 7.55298C16.125 7.55298 16.4403 7.62646 16.631 7.77295C16.829 7.91968 16.928 8.125 16.928 8.38892ZM6.84023 13.229C7.25089 13.6689 7.72023 14.0576 8.24823 14.395L9.12822 13.5481C8.24823 13.0493 7.60655 12.426 7.20322 11.678C6.80722 10.9299 6.60922 10.0684 6.60922 9.09302V8.23511H8.61122V7.20093H3.29822V8.23511H5.27823V9.03809C5.27823 9.60278 5.21222 10.1233 5.08023 10.6001C4.95555 11.0767 4.77589 11.5129 4.54123 11.9089C4.31389 12.3049 4.03156 12.6606 3.69423 12.9761C3.36423 13.2913 2.99756 13.5701 2.59422 13.812L3.61722 14.637C3.85188 14.4683 4.08289 14.2776 4.31023 14.0649C4.54489 13.8523 4.77589 13.6177 5.00322 13.3611C5.44322 12.8623 5.75856 12.3528 5.94922 11.832C6.13255 12.3159 6.42955 12.7817 6.84023 13.229ZM9.89822 16.4741H11.1412V6.62891H9.89822V16.4741Z" />
</svg>
