<svg width="24" height="24" viewBox="0 0 24 24" fill="none" xmlns="http://www.w3.org/2000/svg">
<path fill-rule="evenodd" clip-rule="evenodd" d="M1.5 6.5H22.5C22.7761 6.5 23 6.72386 23 7V17C23 17.2761 22.7761 17.5 22.5 17.5H1.5C1.22386 17.5 1 17.2761 1 17V7C1 6.72386 1.22386 6.5 1.5 6.5ZM0 7C0 6.17157 0.671573 5.5 1.5 5.5H22.5C23.3284 5.5 24 6.17157 24 7V17C24 17.8284 23.3284 18.5 22.5 18.5H1.5C0.671573 18.5 0 17.8284 0 17V7ZM5 10.5263V8.73685H6.78947V10.5263H5ZM4 8.23685C4 7.9607 4.22386 7.73685 4.5 7.73685H7.28947C7.56562 7.73685 7.78947 7.9607 7.78947 8.23685V11.0263C7.78947 11.3025 7.56562 11.5263 7.28947 11.5263H4.5C4.22386 11.5263 4 11.3025 4 11.0263V8.23685ZM5 13.4737V15.2632H6.78947V13.4737H5ZM4.5 12.4737C4.22386 12.4737 4 12.6976 4 12.9737V15.7632C4 16.0393 4.22386 16.2632 4.5 16.2632H7.28947C7.56562 16.2632 7.78947 16.0393 7.78947 15.7632V12.9737C7.78947 12.6976 7.56562 12.4737 7.28947 12.4737H4.5ZM9.73682 10.5263V8.73685H11.5263V10.5263H9.73682ZM8.73682 8.23685C8.73682 7.9607 8.96067 7.73685 9.23682 7.73685H12.0263C12.3024 7.73685 12.5263 7.9607 12.5263 8.23685V11.0263C12.5263 11.3025 12.3024 11.5263 12.0263 11.5263H9.23682C8.96067 11.5263 8.73682 11.3025 8.73682 11.0263V8.23685ZM9.73682 13.4737V15.2632H11.5263V13.4737H9.73682ZM9.23682 12.4737C8.96067 12.4737 8.73682 12.6976 8.73682 12.9737V15.7632C8.73682 16.0393 8.96067 16.2632 9.23682 16.2632H12.0263C12.3024 16.2632 12.5263 16.0393 12.5263 15.7632V12.9737C12.5263 12.6976 12.3024 12.4737 12.0263 12.4737H9.23682ZM14.4736 10.5263V8.73685H16.2631V10.5263H14.4736ZM13.4736 8.23685C13.4736 7.9607 13.6975 7.73685 13.9736 7.73685H16.7631C17.0392 7.73685 17.2631 7.9607 17.2631 8.23685V11.0263C17.2631 11.3025 17.0392 11.5263 16.7631 11.5263H13.9736C13.6975 11.5263 13.4736 11.3025 13.4736 11.0263V8.23685ZM14.4736 13.4737V15.2632H16.2631V13.4737H14.4736ZM13.9736 12.4737C13.6975 12.4737 13.4736 12.6976 13.4736 12.9737V15.7632C13.4736 16.0393 13.6975 16.2632 13.9736 16.2632H16.7631C17.0392 16.2632 17.2631 16.0393 17.2631 15.7632V12.9737C17.2631 12.6976 17.0392 12.4737 16.7631 12.4737H13.9736ZM19.2106 10.5263V8.73685H21V10.5263H19.2106ZM18.2106 8.23685C18.2106 7.9607 18.4344 7.73685 18.7106 7.73685H21.5C21.7762 7.73685 22 7.9607 22 8.23685V11.0263C22 11.3025 21.7762 11.5263 21.5 11.5263H18.7106C18.4344 11.5263 18.2106 11.3025 18.2106 11.0263V8.23685ZM19.2106 13.4737V15.2632H21V13.4737H19.2106ZM18.7106 12.4737C18.4344 12.4737 18.2106 12.6976 18.2106 12.9737V15.7632C18.2106 16.0393 18.4344 16.2632 18.7106 16.2632H21.5C21.7762 16.2632 22 16.0393 22 15.7632V12.9737C22 12.6976 21.7762 12.4737 21.5 12.4737H18.7106ZM2.30005 10.4C2.30005 10.1791 2.12096 10 1.90005 10C1.67913 10 1.50005 10.1791 1.50005 10.4L1.50005 13.6C1.50005 13.8209 1.67913 14 1.90005 14C2.12096 14 2.30005 13.8209 2.30005 13.6L2.30005 10.4Z" />
</svg>
