<svg width="24" height="24" viewBox="0 0 24 24" xmlns="http://www.w3.org/2000/svg">
<path fill-rule="evenodd" clip-rule="evenodd" d="M3.5 10C3.22386 10 3 10.2239 3 10.5V21.5C3 21.7761 3.22386 22 3.5 22H20.5C20.7761 22 21 21.7761 21 21.5V10.5C21 10.2239 20.7761 10 20.5 10H3.5ZM12.0001 13.0002C11.4478 13.0002 11.0001 13.4479 11.0001 14.0002V17.0002C11.0001 17.5525 11.4478 18.0002 12.0001 18.0002C12.5524 18.0002 13.0001 17.5525 13.0001 17.0002V14.0002C13.0001 13.4479 12.5524 13.0002 12.0001 13.0002Z"/>
<path fill-rule="evenodd" clip-rule="evenodd" d="M6.4965 6C6.82746 6 7.11736 5.7886 7.26001 5.48996C8.10465 3.72166 9.90966 2.5 12 2.5C14.8995 2.5 17.25 4.8505 17.25 7.75V11C17.25 11.4142 17.5858 11.75 18 11.75C18.4142 11.75 18.75 11.4142 18.75 11V7.75C18.75 4.02208 15.7279 1 12 1C9.23566 1 6.85943 2.66171 5.81572 5.04073C5.60946 5.51086 5.98311 6 6.4965 6ZM6.75 11.375C6.75 11.1679 6.58211 11 6.375 11H5.625C5.41789 11 5.25 11.1679 5.25 11.375C5.25 11.5821 5.41789 11.75 5.625 11.75H6.375C6.58211 11.75 6.75 11.5821 6.75 11.375Z"/>
</svg>
