<svg width="24" height="24" viewBox="0 0 24 24" xmlns="http://www.w3.org/2000/svg">
<path fill-rule="evenodd" clip-rule="evenodd" d="M18 2H6C3.79086 2 2 3.79086 2 6V18C2 20.2091 3.79086 22 6 22H18C20.2091 22 22 20.2091 22 18V6C22 3.79086 20.2091 2 18 2ZM6 1C3.23858 1 1 3.23858 1 6V18C1 20.7614 3.23858 23 6 23H18C20.7614 23 23 20.7614 23 18V6C23 3.23858 20.7614 1 18 1H6Z"/>
<path fill-rule="evenodd" clip-rule="evenodd" d="M11.0006 11.8859V15.998H13.0006V11.8859H15.1837L12.0006 7.68746L8.81751 11.8859H11.0006ZM7.81097 12.8859C7.39775 12.8859 7.16289 12.4131 7.41254 12.0838L11.6022 6.55779C11.8022 6.29389 12.1989 6.29389 12.399 6.55779L16.5886 12.0838C16.8383 12.4131 16.6034 12.8859 16.1902 12.8859H14.0006V16.498C14.0006 16.7742 13.7767 16.998 13.5006 16.998H10.5006C10.2244 16.998 10.0006 16.7742 10.0006 16.498V12.8859H7.81097Z"/>
</svg>
