<svg width="24" height="24" viewBox="0 0 24 24" xmlns="http://www.w3.org/2000/svg">
<path fill-rule="evenodd" clip-rule="evenodd" d="M11.0001 11.8879V16H13.0001V11.8879H15.1832L12.0001 7.68948L8.81702 11.8879H11.0001ZM7.41205 12.0858C7.1624 12.4151 7.39726 12.8879 7.81048 12.8879H10.0001V16.5C10.0001 16.7762 10.224 17 10.5001 17H13.5001C13.7762 17 14.0001 16.7762 14.0001 16.5V12.8879H16.1897C16.6029 12.8879 16.8378 12.4151 16.5881 12.0858L12.3985 6.5598C12.1985 6.2959 11.8017 6.2959 11.6017 6.5598L7.41205 12.0858Z"/>
<path fill-rule="evenodd" clip-rule="evenodd" d="M12 22C17.5228 22 22 17.5228 22 12C22 6.47715 17.5228 2 12 2C6.47715 2 2 6.47715 2 12C2 17.5228 6.47715 22 12 22ZM12 23C18.0751 23 23 18.0751 23 12C23 5.92487 18.0751 1 12 1C5.92487 1 1 5.92487 1 12C1 18.0751 5.92487 23 12 23Z"/>
</svg>
