<svg width="24" height="24" viewBox="0 0 24 24" fill="none" xmlns="http://www.w3.org/2000/svg">
<path d="M6.15948 15.8683C6.93152 16.8365 7.94212 17.5873 9.09202 18.0468V16.5865C8.20365 16.1371 7.44879 15.4623 6.9029 14.6297C6.62275 14.1934 6.41392 13.7153 6.28427 13.2132C6.1813 12.8233 6.12954 12.4217 6.13027 12.0184C6.13027 9.12043 8.78535 6.76139 12.0498 6.76139C13.5496 6.74835 15.0049 7.27034 16.1545 8.23363C16.6046 8.62124 16.988 9.08002 17.2896 9.5917C17.7301 10.328 17.9631 11.1698 17.964 12.0277C17.964 13.9713 16.7692 15.6718 15.0022 16.5812V18.0415C17.5246 17.014 19.2902 14.708 19.2902 12.0291C19.2906 11.2691 19.1469 10.5159 18.8667 9.80942C18.6586 9.28133 18.3799 8.78385 18.0383 8.33054C16.736 6.58881 14.5376 5.4458 12.0445 5.4458C8.04326 5.4458 4.80008 8.39293 4.80008 12.0291C4.7993 12.9042 4.98911 13.769 5.35632 14.5633C5.57072 15.029 5.84038 15.4671 6.15948 15.8683Z" />
<path d="M14.7114 19.0058H9.38801V20.332H14.7114V19.0058Z" />
<path d="M14.1793 21.6738H9.92052V23H14.1793V21.6738Z" />
<path d="M7.18841 5.44473L8.12565 4.50749L6.48083 2.86134L5.54359 3.79991L7.18841 5.44473Z" />
<path d="M18.466 3.79991L17.5288 2.86134L15.884 4.50749L16.8212 5.44473L18.466 3.79991Z" />
<path d="M12.6688 1H11.3426V3.32718H12.6688V1Z" />
</svg>
