<svg width="24" height="24" viewBox="0 0 24 24" xmlns="http://www.w3.org/2000/svg">
<path fill-rule="evenodd" clip-rule="evenodd" d="M17.7714 10.1145H3.78571V16.7931H17.7714V10.1145ZM3 9.3288V17.5788H18.5571V9.3288H3Z"/>
<path fill-rule="evenodd" clip-rule="evenodd" d="M18.5572 11.4665V15.4407L21.0715 16.5909V10.3164L18.5572 11.4665ZM17.7715 10.9619V15.9453L21.8572 17.8143V9.0929L17.7715 10.9619Z"/>
<path fill-rule="evenodd" clip-rule="evenodd" d="M5.82857 9.09274C6.95681 9.09274 7.87143 8.17812 7.87143 7.04989C7.87143 5.92165 6.95681 5.00703 5.82857 5.00703C4.70033 5.00703 3.78571 5.92165 3.78571 7.04989C3.78571 8.17812 4.70033 9.09274 5.82857 9.09274ZM5.82857 9.87846C7.39075 9.87846 8.65714 8.61206 8.65714 7.04989C8.65714 5.48771 7.39075 4.22131 5.82857 4.22131C4.26639 4.22131 3 5.48771 3 7.04989C3 8.61206 4.26639 9.87846 5.82857 9.87846Z"/>
<path fill-rule="evenodd" clip-rule="evenodd" d="M5.82859 7.67854C6.17574 7.67854 6.45716 7.39712 6.45716 7.04997C6.45716 6.70282 6.17574 6.4214 5.82859 6.4214C5.48144 6.4214 5.20002 6.70282 5.20002 7.04997C5.20002 7.39712 5.48144 7.67854 5.82859 7.67854ZM5.82859 8.46425C6.60968 8.46425 7.24288 7.83106 7.24288 7.04997C7.24288 6.26888 6.60968 5.63568 5.82859 5.63568C5.0475 5.63568 4.41431 6.26888 4.41431 7.04997C4.41431 7.83106 5.0475 8.46425 5.82859 8.46425Z"/>
<path fill-rule="evenodd" clip-rule="evenodd" d="M13.0571 9.32857C15.14 9.32857 16.8286 7.64005 16.8286 5.55714C16.8286 3.47424 15.14 1.78571 13.0571 1.78571C10.9742 1.78571 9.28571 3.47424 9.28571 5.55714C9.28571 7.64005 10.9742 9.32857 13.0571 9.32857ZM13.0571 10.1143C15.574 10.1143 17.6143 8.07398 17.6143 5.55714C17.6143 3.0403 15.574 1 13.0571 1C10.5403 1 8.5 3.0403 8.5 5.55714C8.5 8.07398 10.5403 10.1143 13.0571 10.1143Z"/>
<path fill-rule="evenodd" clip-rule="evenodd" d="M13.0572 7.91437C14.359 7.91437 15.4143 6.85904 15.4143 5.55722C15.4143 4.25541 14.359 3.20008 13.0572 3.20008C11.7553 3.20008 10.7 4.25541 10.7 5.55722C10.7 6.85904 11.7553 7.91437 13.0572 7.91437ZM13.0572 8.70008C14.7929 8.70008 16.2 7.29298 16.2 5.55722C16.2 3.82147 14.7929 2.41437 13.0572 2.41437C11.3214 2.41437 9.91431 3.82147 9.91431 5.55722C9.91431 7.29298 11.3214 8.70008 13.0572 8.70008Z"/>
<path fill-rule="evenodd" clip-rule="evenodd" d="M2.84033 22.7222L8.6939 16.8686L9.24949 17.4242L3.39592 23.2777L2.84033 22.7222Z"/>
<path fill-rule="evenodd" clip-rule="evenodd" d="M18.24 23.2778L12.3865 17.4242L12.9421 16.8686L18.7956 22.7222L18.24 23.2778Z"/>
<path fill-rule="evenodd" clip-rule="evenodd" d="M14.7857 12.4713C15.0461 12.4713 15.2571 12.2602 15.2571 11.9999C15.2571 11.7395 15.0461 11.5285 14.7857 11.5285C14.5253 11.5285 14.3143 11.7395 14.3143 11.9999C14.3143 12.2602 14.5253 12.4713 14.7857 12.4713ZM14.7857 13.257C15.48 13.257 16.0429 12.6942 16.0429 11.9999C16.0429 11.3056 15.48 10.7427 14.7857 10.7427C14.0914 10.7427 13.5286 11.3056 13.5286 11.9999C13.5286 12.6942 14.0914 13.257 14.7857 13.257Z"/>
</svg>
