<svg width="24" height="24" viewBox="0 0 24 24" fill="none" xmlns="http://www.w3.org/2000/svg">
<path fill-rule="evenodd" clip-rule="evenodd" d="M9 1H2C1.44772 1 1 1.44772 1 2V9C1 9.55228 1.44772 10 2 10H9C9.55228 10 10 9.55228 10 9V2C10 1.44772 9.55228 1 9 1ZM2 0C0.895431 0 0 0.895431 0 2V9C0 10.1046 0.895431 11 2 11H9C10.1046 11 11 10.1046 11 9V2C11 0.895431 10.1046 0 9 0H2Z" />
<path fill-rule="evenodd" clip-rule="evenodd" d="M9 14H2C1.44772 14 1 14.4477 1 15V22C1 22.5523 1.44772 23 2 23H9C9.55228 23 10 22.5523 10 22V15C10 14.4477 9.55228 14 9 14ZM2 13C0.895431 13 0 13.8954 0 15V22C0 23.1046 0.895431 24 2 24H9C10.1046 24 11 23.1046 11 22V15C11 13.8954 10.1046 13 9 13H2Z" />
<path fill-rule="evenodd" clip-rule="evenodd" d="M22 1H15C14.4477 1 14 1.44772 14 2V9C14 9.55228 14.4477 10 15 10H22C22.5523 10 23 9.55228 23 9V2C23 1.44772 22.5523 1 22 1ZM15 0C13.8954 0 13 0.895431 13 2V9C13 10.1046 13.8954 11 15 11H22C23.1046 11 24 10.1046 24 9V2C24 0.895431 23.1046 0 22 0H15Z" />
<path fill-rule="evenodd" clip-rule="evenodd" d="M22 14H15C14.4477 14 14 14.4477 14 15V22C14 22.5523 14.4477 23 15 23H22C22.5523 23 23 22.5523 23 22V15C23 14.4477 22.5523 14 22 14ZM15 13C13.8954 13 13 13.8954 13 15V22C13 23.1046 13.8954 24 15 24H22C23.1046 24 24 23.1046 24 22V15C24 13.8954 23.1046 13 22 13H15Z" />
</svg>
